<?xml version="1.0" encoding="iso-8859-1"?>
<!-- Generator: Adobe Illustrator 18.0.0, SVG Export Plug-In . SVG Version: 6.00 Build 0)  -->
<!DOCTYPE svg PUBLIC "-//W3C//DTD SVG 1.1//EN" "http://www.w3.org/Graphics/SVG/1.1/DTD/svg11.dtd">
<svg version="1.1" id="Capa_1" xmlns="http://www.w3.org/2000/svg" xmlns:xlink="http://www.w3.org/1999/xlink" x="0px" y="0px"
	 viewBox="0 0 297.502 297.502" style="enable-background:new 0 0 297.502 297.502;" xml:space="preserve">
<g id="XMLID_20_">
	<g>
		<path style="fill:#F0C082;" d="M253.37,74.212c0.2-2.37-0.49-4.83-2.12-6.81c-1.75-2.12-1.44-5.28,0.68-7.03
			c1.03-0.851,2.32-1.24,3.641-1.12c1.319,0.13,2.51,0.77,3.359,1.8c1.75,2.12,1.45,5.28-0.67,7.03c-1.98,1.63-3.12,3.89-3.38,6.25
			L253.37,74.212z"/>
		<path style="fill:#F0C082;" d="M262.98,84.692c2.511,0.35,5.16-0.32,7.28-2.061c1.02-0.85,2.311-1.25,3.641-1.12
			c1.319,0.13,2.52,0.771,3.359,1.79c1.76,2.13,1.45,5.28-0.68,7.04c-1.021,0.851-2.31,1.24-3.63,1.11
			c-1.32-0.12-2.511-0.76-3.36-1.78c-1.59-1.939-3.88-3.16-6.37-3.4c-0.149-0.02-0.3-0.02-0.46-0.029L262.98,84.692z"/>
		<path style="fill:#F0C082;" d="M249.98,80.672c2.03-1.68,3.181-4.03,3.391-6.46l1.51,0.12c-0.03,0.34-0.05,0.68-0.05,1.02
			c0,2.12,0.7,4.24,2.15,6c1.57,1.9,3.73,3.03,6,3.341l-0.22,1.55c-2.34-0.11-4.64,0.649-6.45,2.14l-22.72,18.75
			c-0.81-1.439-1.74-2.82-2.82-4.13c-0.949-1.16-2.13-2.37-3.55-3.55L249.98,80.672z"/>
		<path style="fill:#F77E21;" d="M229.86,155.652c2.479,7.27,3.76,14.73,3.76,22.239c0,38.57-36.601,58.13-108.78,58.13
			c-65.28,0-91.91-16.84-91.91-58.13c0-50.67,41.23-91.899,91.91-91.899c14.96,0,30.82,3.66,45.68,10.229
			c-14.6,4.5-28.13,11.4-36.109,17.99c-22.4,18.49-25.601,51.76-7.13,74.18c10.029,12.191,24.85,19.181,40.65,19.181
			c12.181,0,24.07-4.271,33.48-12.04C210.5,188.032,222.24,172.552,229.86,155.652z"/>
		<path style="fill:#A97819;" d="M216.22,114.992c4.22,5.13,3.13,17.069-2.85,31.17c-5.78,13.63-15.63,27.95-23.96,34.83
			c-6.04,4.98-13.67,7.72-21.48,7.72c-10.14,0-19.65-4.479-26.1-12.31c-11.86-14.4-9.8-35.77,4.58-47.641
			c10.7-8.84,35.45-18.68,53.859-18.68C207.95,110.082,213.61,111.832,216.22,114.992z"/>
		<path d="M291.82,71.322c8.359,10.14,6.909,25.199-3.24,33.569c-4.9,4.051-11.09,5.95-17.43,5.341
			c-3.061-0.301-5.98-1.16-8.631-2.521l-24.989,20.62c0,0.03,0,0.059,0,0.09c9.779,15.4,14.949,32.25,14.949,49.47
			c0,26.73-12.939,47.48-37.5,60.38h59.19c5.21,0,9.43,4.221,9.43,9.431c0,5.21-4.22,9.43-9.43,9.43H9.68
			c-5.2,0-9.43-4.22-9.43-9.43c0-5.21,4.229-9.431,9.43-9.431h34.46c-19.95-12.67-30.06-32.949-30.06-60.38
			c0-61.069,49.68-110.76,110.76-110.76c25.8,0,52.74,8.68,75.64,24.101c2.36,0.01,4.561,0.14,6.62,0.38l25.11-20.721
			c-2.57-8.87,0.16-18.83,7.72-25.06c4.91-4.061,11.11-5.96,17.44-5.35c6.34,0.609,12.069,3.659,16.12,8.569
			c3.439,4.181,5.22,9.19,5.41,14.21C283.96,64.452,288.46,67.242,291.82,71.322z M276.58,90.342c2.13-1.76,2.44-4.91,0.68-7.04
			c-0.84-1.019-2.04-1.66-3.359-1.79c-1.33-0.13-2.62,0.271-3.641,1.12c-2.12,1.74-4.77,2.41-7.28,2.061
			c-2.27-0.311-4.43-1.44-6-3.341c-1.449-1.76-2.15-3.88-2.15-6c0-0.34,0.02-0.68,0.05-1.02c0.26-2.36,1.4-4.62,3.38-6.25
			c2.12-1.75,2.42-4.91,0.67-7.03c-0.85-1.03-2.04-1.67-3.359-1.8c-1.32-0.12-2.61,0.27-3.641,1.12c-2.12,1.75-2.43,4.91-0.68,7.03
			c1.63,1.979,2.32,4.439,2.12,6.81c-0.21,2.43-1.36,4.78-3.391,6.46l-22.76,18.78c1.42,1.18,2.601,2.39,3.55,3.55
			c1.08,1.31,2.011,2.69,2.82,4.13l22.72-18.75c1.811-1.49,4.11-2.25,6.45-2.14c0.16,0.01,0.311,0.01,0.46,0.029
			c2.49,0.24,4.78,1.461,6.37,3.4c0.85,1.021,2.04,1.66,3.36,1.78C274.27,91.582,275.56,91.192,276.58,90.342z M233.62,177.891
			c0-7.51-1.28-14.97-3.76-22.239c-7.62,16.899-19.36,32.38-28.45,39.88c-9.41,7.77-21.3,12.04-33.48,12.04
			c-15.8,0-30.62-6.99-40.65-19.181c-18.471-22.42-15.271-55.689,7.13-74.18c7.98-6.59,21.51-13.49,36.109-17.99
			c-14.859-6.569-30.72-10.229-45.68-10.229c-50.68,0-91.91,41.229-91.91,91.899c0,41.29,26.63,58.13,91.91,58.13
			C197.02,236.021,233.62,216.462,233.62,177.891z M213.37,146.162c5.98-14.101,7.069-26.04,2.85-31.17
			c-2.609-3.16-8.27-4.91-15.95-4.91c-18.409,0-43.159,9.84-53.859,18.68c-14.38,11.87-16.44,33.24-4.58,47.641
			c6.45,7.83,15.96,12.31,26.1,12.31c7.81,0,15.44-2.74,21.48-7.72C197.74,174.112,207.59,159.792,213.37,146.162z"/>
	</g>
	<g>
	</g>
</g>
<g>
</g>
<g>
</g>
<g>
</g>
<g>
</g>
<g>
</g>
<g>
</g>
<g>
</g>
<g>
</g>
<g>
</g>
<g>
</g>
<g>
</g>
<g>
</g>
<g>
</g>
<g>
</g>
<g>
</g>
</svg>
